<svg width="582" height="152" xmlns="http://www.w3.org/2000/svg">
 <!-- Created with Method Draw - http://github.com/duopixel/Method-Draw/ -->

 <g>
  <title>background</title>
  <rect fill="#fff" id="canvas_background" height="154" width="584" y="-1" x="-1"/>
  <g display="none" overflow="visible" y="0" x="0" height="100%" width="100%" id="canvasGrid">
   <rect fill="url(#gridpattern)" stroke-width="0" y="1" x="1" height="400" width="580"/>
  </g>
 </g>
 <g>
  <title>Layer 1</title>
  <style transform="matrix(0.04181983137688494,0,0,0.04181983137688494,0,0) " type="text/css">.st0{fill:#AF8219;}</style>
  <g stroke="null" id="svg_9">
   <g stroke="null" transform="matrix(0.9633334597255295,0,0,0.9633334597255295,-6390.744482840338,-4407.190876221046) " id="svg_5">
    <path stroke="null" id="svg_6" d="m6655.016659,4614.1762l47,0l-12.7,17.2c0,0 -1,-3.1 -6,-3.1l-28.4,0c0,0 -1,17.3 19.3,23.2c20.8,6 33.5,-2.9 36.8,-4.3l-6.6,16.9l-32,0c0,0 -23.6,0.9 -33.9,-24.8c0,0 -7.6,-11.7 3.7,-40.4l35.4,-22.9l25.5,16.7l-11.5,8.7c0,0 -7.7,-13.6 -21.9,-9.5c-14,4.3 -14.7,22.3 -14.7,22.3m74.4,-37.4l-19.4,13.4c0,0 2.5,1.2 2.6,4.3c0.1,4.1 -0.1,70.2 -0.1,70.2l10.2,-6.3l33.2,19.3l10.5,-11.8l-30.6,-17.8l-5.2,2.9c0,0 -1.4,0.8 -1.4,-1c0,0 0.2,-73.2 0.2,-73.2zm199.5,39.5c-3,-22.8 -22.6,-39.5 -45.3,-39.3c-25.4,0.1 -46,22.9 -43.9,48.6c0.3,4.2 1.3,8.1 2.7,11.9c0.1,0.4 0.2,0.8 0.5,1.1c6,14.2 18.4,24.2 34.3,27c29,5 55.6,-19.8 51.7,-49.3m-48.4,35.3c-6.8,-2.4 -13.1,-7.2 -18,-13.8c-2.9,-4.1 -5.2,-8.6 -6.8,-13.4c-3.6,-11.1 -3.2,-24.8 8.2,-31.7c6.5,-3.9 13.1,-4.5 20,-2.5c18.1,5.3 29.1,22.9 28.6,41c-0.4,15.7 -16.9,25.9 -32,20.4m87.1,-23c0,0 -2.1,-3.1 1.9,-2.9c3.3,0.2 8.1,3.2 16.6,-4.1c11.6,-10.1 -0.3,-29.8 0.6,-28.2c-1,-1.8 -9.7,-14.6 -19.2,-15.9c0,0 -3,-0.2 -5.3,1.1c-2.2,1.2 -13.1,7.3 -13.1,7.3l-0.2,-7.4l-18.6,12.1c0,0 2.5,1.8 2.5,4.5l0,70.1l16.3,-7.7l0,-24.8l41.3,43.2l12.8,-10.2l-35.6,-37.1l0,0zm-10.5,-10.5l-8.1,6.4l0,-21l0.2,-10.4c5,-6.8 9.4,-6.2 9.4,-6.2c9.3,1.3 13.1,9.2 14.9,14.2c1.8,4.9 2.3,17.1 -3.9,20.4c-6.4,3.2 -12.5,-3.4 -12.5,-3.4" class="st0"/>
    <path stroke="null" id="svg_7" d="m7061.316659,4638.1762l0,-42c0,0 -19.4,-25.3 -51.2,-14.4l-6.3,13.7c0,0 18.9,-11.6 40.6,4.6l0,18.3c0,0 -8.4,-11.8 -24.8,-10.2c-14.2,1.4 -28.1,13.6 -26.7,29c1.7,19.4 13.8,26.5 27.3,29.9c0,0 2.2,0.8 5.5,-0.2l18.8,-8.6l0,9.6l16.9,-8.7l-0.1,-21l-0.2,0.1l0,-0.1l0.2,0l0,0zm-17.7,0.2c-0.1,1.4 -0.3,2.9 -0.7,4.4c-2.4,8.6 -11.5,12.9 -20.3,11.6c-11.9,-1.7 -18.9,-15.4 -13.5,-25.9c4.4,-8.5 14.9,-12.7 23.6,-8.5c7.1,3.4 11.2,10.4 11,18.1c-0.1,0.1 -0.1,0.2 -0.1,0.3m-276,26.1l-0.1,-53.6c0,0 -0.2,-2.6 -1.4,-2.6l17.3,-9.7l0.3,45.4c0,0 5.2,19.9 24,7.3c18.6,-12.5 15.4,-52.9 -3.4,-64c0,0 -22,-14 -33.7,9.4l-12.2,-0.2c0,0 8.8,-24.7 45,-18.6c36.8,6.2 41.3,56.6 19.3,76.5c0,0 -19.5,20.8 -44.1,4l-11,6.1l0,0zm306.9,0l-0.1,-53.6c0,0 -0.2,-2.6 -1.4,-2.6l17.3,-9.7l0.3,45.4c0,0 5.2,19.9 24,7.3c18.6,-12.5 15.4,-52.9 -3.4,-64c0,0 -22,-14 -33.7,9.4l-12.2,-0.2c0,0 8.8,-24.7 45,-18.6c36.8,6.2 41.3,56.6 19.3,76.5c0,0 -19.5,20.8 -44.1,4l-11,6.1l0,0z" class="st0"/>
    <path stroke="null" id="svg_8" d="m7235.716659,4616.2762c-3,-22.8 -22.6,-39.5 -45.3,-39.3c-25.4,0.1 -46,22.9 -43.9,48.6c0.3,4.4 1.4,8.4 2.9,12.3l0.2,0l-0.2,0c5.8,14.6 18.4,24.8 34.6,27.7c29,5 55.7,-19.8 51.7,-49.3m-48.4,35.3c-6.7,-2.4 -13.1,-7.2 -18,-13.8c-2.9,-4.1 -5.2,-8.6 -6.8,-13.4c-3.6,-11.1 -3.2,-24.8 8.2,-31.7c6.5,-3.9 13.1,-4.5 20,-2.5c18.1,5.3 29.1,22.9 28.6,41c-0.4,15.7 -17,25.9 -32,20.4m-281.8,55.3l0,-1.6c0,-3.4 -1.4,-3.7 -6.3,-3.7c-5.7,0 -6.7,1 -6.7,6.7l0,6.5c0.1,5.9 0.7,7 6.7,7c4.5,0 6.6,-0.2 6.6,-4.4l0,-1.6l5.6,0l0,1.9c0.1,8.9 -4.9,8.6 -12.3,8.9c-10.3,0.4 -12.3,-3 -12.3,-11.6l0,-6.8c0,-9.5 3.7,-11.5 12.3,-11.5c7.3,0 11.5,0 11.9,8.5l0,1.6l-5.5,0.1l0,0zm14.9,14l-1.8,5.6l-5.9,0l9.8,-29.5l8.4,0l9.9,29.5l-5.7,0l-1.9,-5.6l-12.8,0zm6.4,-19.5l-5.1,15.3l10.2,0l-5.1,-15.3zm20.8,15.7l0,1.4c0,3.3 1.4,3.6 6.7,3.6c5.2,0 5.9,-1 5.9,-4.4c0,-4.2 -2.2,-3.7 -6.7,-3.9c-6.4,-0.4 -11.4,-0.2 -11.4,-8.8c0,-8.1 5.1,-8.4 12.2,-8.4c6,0 10.9,0.2 10.9,8l0,1l-5.6,0l0,-1c0,-3.2 -1.3,-3.3 -5.3,-3.3c-5.6,0 -6.5,0.6 -6.5,3.7c0,3.6 0.7,3.7 6.5,4.1c9.1,0.6 11.5,1 11.5,8.5c0,8.3 -3.9,9 -11.5,9c-6.5,0 -12.3,0.2 -12.3,-8.3l0,-1.4l5.6,0l0,0.2zm22.2,-20l5.6,0l0,29.5l-5.6,0l0,-29.5zm31.7,0l5.6,0l0,29.4l-9.4,0l-12.6,-24.7l-0.2,0l0.4,24.7l-5.6,0l0,-29.4l9.4,0l12.7,24.6l0.2,0m33.6,-14.1l0,8c0,9.5 -3.7,11.2 -12.6,11.2c-9.2,0 -12.5,-1.6 -12.5,-11.2l0,-8c0,-9.2 3.1,-10.7 12.5,-10.7c8.4,-0.1 12.6,1.2 12.6,10.7m-19.5,0l0,8c0,5.9 1.1,6.4 6.8,6.4c5.2,0 6.9,-0.7 6.9,-6.4l0,-8c0.2,-5.6 -1.9,-6 -6.9,-6c-6,0 -6.7,1.3 -6.8,6m70,8.9l0,9.8l-5.6,0l0,-29.5l15,0c6.4,0.2 8.9,2.1 8.9,8.8c0,4.4 -0.2,7.6 -5.3,8.3l0,0.2c4,0.3 5,2.5 5,6.7l0,5.5l-5.6,0l0,-5.5c0,-2.5 -1,-4.2 -3.7,-4.2l-8.7,0l0,-0.1zm7.5,-4.9c4.1,0 5.2,-0.8 5.2,-5.2c0,-4.1 -0.7,-4.9 -4.8,-4.9l-7.9,0l0,10.1l7.5,0zm19.9,-2.7l13.8,0l0,4.6l-13.8,0l0,7.9l14.6,0l0,4.8l-20.3,0l0,-29.4l20.2,0l0,4.9l-14.6,0m40,-5l5.6,0l0,29.5l-9.4,0l-12.5,-24.6l-0.2,0l0.5,24.6l-5.6,0l0,-29.4l9.3,0l12.7,24.7l0.2,0m34.3,-14.3l0,8c0,9.5 -3.7,11.2 -12.6,11.2c-9.2,0 -12.5,-1.6 -12.5,-11.2l0,-8c0,-9.2 3.1,-10.7 12.5,-10.7c8.4,0 12.6,1.3 12.6,10.7m-19.5,0l0,8c0,5.9 1.1,6.4 6.8,6.4c5.2,0 6.9,-0.7 6.9,-6.4l0,-8c0.2,-5.6 -1.9,-6 -6.9,-6c-6,0.2 -6.6,1.4 -6.8,6m-303,10.9c3.6,0 6.5,-2.9 6.5,-6.5c0,-3.7 -2.9,-6.5 -6.5,-6.5c-3.6,0 -6.5,2.9 -6.5,6.5c-0.1,3.6 2.8,6.5 6.5,6.5m192.6,0c3.6,0 6.5,-2.9 6.5,-6.5c0,-3.7 -2.9,-6.5 -6.5,-6.5c-3.6,0 -6.5,2.9 -6.5,6.5c0,3.6 2.9,6.5 6.5,6.5m-219.2,7.8l-5.6,0l0,-24.6l-8.6,0l0,-4.9l22.9,0l0,4.9l-8.7,0m-90.6,15.3l0,1.4c0,3.3 1.4,3.6 6.7,3.6c5.2,0 5.9,-1 5.9,-4.4c0,-4.2 -2.2,-3.7 -6.7,-3.9c-6.4,-0.4 -11.4,-0.2 -11.4,-8.8c0,-8.1 5.1,-8.4 12.2,-8.4c6,0 10.9,0.2 10.9,8l0,1l-5.6,0l0,-1c0,-3.2 -1.3,-3.3 -5.3,-3.3c-5.6,0 -6.5,0.6 -6.5,3.7c0,3.6 0.7,3.7 6.5,4.1c9.1,0.6 11.5,1 11.5,8.5c0,8.3 -3.9,9 -11.5,9c-6.5,0 -12.3,0.2 -12.3,-8.3l0,-1.4l5.6,0l0,0.2zm-50.6,-0.7l0,9.8l-5.6,0l0,-29.5l15,0c6.4,0.2 8.9,2.1 8.9,8.8c0,4.4 -0.2,7.6 -5.3,8.3l0,0.2c4,0.3 5,2.5 5,6.7l0,5.5l-5.6,0l0,-5.5c0,-2.5 -1,-4.2 -3.7,-4.2l-8.7,0l0,-0.1zm7.5,-4.8c4.1,0 5.2,-0.8 5.2,-5.2c0,-4.1 -0.7,-4.9 -4.8,-4.9l-7.9,0l0,10.1l7.5,0zm98.5,4.8l0,9.8l-5.6,0l0,-29.5l15,0c6.4,0.2 8.9,2.1 8.9,8.8c0,4.4 -0.2,7.6 -5.3,8.3l0,0.2c4,0.3 5,2.5 5,6.7l0,5.5l-5.6,0l0,-5.5c0,-2.5 -1,-4.2 -3.7,-4.2l-8.7,0l0,-0.1zm7.5,-4.8c4.1,0 5.2,-0.8 5.2,-5.2c0,-4.1 -0.7,-4.9 -4.8,-4.9l-7.9,0l0,10.1l7.5,0zm-86.1,-2.7l13.8,0l0,4.6l-13.8,0l0,7.8l14.7,0l0,4.9l-20.4,0l0,-29.5l20.2,0l0,4.9l-14.6,0m69.3,5.7l0,8c0,9.5 -3.7,11.2 -12.6,11.2c-9.2,0 -12.5,-1.6 -12.5,-11.2l0,-8c0,-9.2 3.1,-10.7 12.5,-10.7c8.5,-0.1 12.6,1.2 12.6,10.7m-19.4,0l0,8c0,5.9 1.1,6.4 6.8,6.4c5.2,0 6.9,-0.7 6.9,-6.4l0,-8c0.2,-5.6 -1.9,-6 -6.9,-6c-6.1,0 -6.6,1.3 -6.8,6" class="st0"/>
   </g>
  </g>
 </g>
</svg>